<svg width="37" height="37" viewBox="0 0 37 37" fill="none" xmlns="http://www.w3.org/2000/svg">
<path d="M0 18.5C0 8.28273 8.28273 0 18.5 0C28.7173 0 37 8.28273 37 18.5C37 28.7173 28.7173 37 18.5 37C8.28273 37 0 28.7173 0 18.5ZM18.5009 8.63333C15.8213 8.63333 15.485 8.64505 14.4325 8.69294C13.3821 8.74104 12.6651 8.90734 12.0378 9.15134C11.3888 9.40335 10.8384 9.74047 10.2899 10.2891C9.74108 10.8375 9.40397 11.388 9.15113 12.0368C8.90652 12.6643 8.74002 13.3815 8.69274 14.4315C8.64567 15.484 8.63333 15.8205 8.63333 18.5001C8.63333 21.1798 8.64526 21.515 8.69294 22.5675C8.74125 23.6179 8.90755 24.3349 9.15134 24.9622C9.40356 25.6112 9.74067 26.1616 10.2893 26.7101C10.8375 27.2589 11.388 27.5969 12.0365 27.8489C12.6643 28.0929 13.3815 28.2592 14.4317 28.3073C15.4842 28.3552 15.8202 28.3669 18.4997 28.3669C21.1795 28.3669 21.5148 28.3552 22.5673 28.3073C23.6177 28.2592 24.3355 28.0929 24.9632 27.8489C25.612 27.5969 26.1616 27.2589 26.7099 26.7101C27.2587 26.1616 27.5958 25.6112 27.8487 24.9624C28.0912 24.3349 28.2577 23.6177 28.3071 22.5677C28.3543 21.5152 28.3667 21.1798 28.3667 18.5001C28.3667 15.8205 28.3543 15.4842 28.3071 14.4317C28.2577 13.3813 28.0912 12.6643 27.8487 12.037C27.5958 11.388 27.2587 10.8375 26.7099 10.2891C26.161 9.74026 25.6122 9.40315 24.9626 9.15134C24.3336 8.90734 23.6162 8.74104 22.5658 8.69294C21.5134 8.64505 21.1783 8.63333 18.4978 8.63333H18.5009Z" fill="white"/>
<path d="M17.7888 12.002C17.9999 12.0017 18.2355 12.002 18.5001 12.002C20.6171 12.002 20.868 12.0096 21.704 12.0476C22.4771 12.0829 22.8967 12.2121 23.1762 12.3207C23.5462 12.4644 23.81 12.6362 24.0873 12.9138C24.3649 13.1913 24.5367 13.4556 24.6807 13.8257C24.7892 14.1049 24.9186 14.5245 24.9537 15.2977C24.9917 16.1337 25 16.3848 25 18.5011C25 20.6174 24.9917 20.8685 24.9537 21.7044C24.9184 22.4776 24.7892 22.8972 24.6807 23.1764C24.537 23.5465 24.3649 23.81 24.0873 24.0874C23.8098 24.3649 23.5464 24.5368 23.1762 24.6805C22.897 24.7895 22.4771 24.9184 21.704 24.9537C20.8682 24.9917 20.6171 25 18.5001 25C16.3829 25 16.132 24.9917 15.2961 24.9537C14.5231 24.9181 14.1035 24.7889 13.8238 24.6803C13.4538 24.5366 13.1895 24.3648 12.912 24.0872C12.6345 23.8097 12.4627 23.546 12.3186 23.1758C12.2101 22.8966 12.0808 22.477 12.0456 21.7038C12.0076 20.8678 12 20.6167 12 18.4991C12 16.3815 12.0076 16.1317 12.0456 15.2957C12.0809 14.5226 12.2101 14.1029 12.3186 13.8234C12.4624 13.4533 12.6345 13.189 12.912 12.9114C13.1895 12.6339 13.4538 12.4621 13.8238 12.318C14.1033 12.209 14.5231 12.0801 15.2961 12.0446C16.0276 12.0116 16.311 12.0017 17.7888 12V12.002ZM22.7325 13.3187C22.2072 13.3187 21.781 13.7444 21.781 14.2699C21.781 14.7953 22.2072 15.2215 22.7325 15.2215C23.2578 15.2215 23.684 14.7953 23.684 14.2699C23.684 13.7446 23.2578 13.3187 22.7325 13.3187ZM18.5001 14.4305C16.2514 14.4305 14.4282 16.2539 14.4282 18.5029C14.4282 20.7519 16.2514 22.5744 18.5001 22.5744C20.7488 22.5744 22.5713 20.7519 22.5713 18.5029C22.5713 16.2539 20.7488 14.4305 18.5001 14.4305Z" fill="white"/>
<path d="M18.5 17C19.3284 17 20 17.6715 20 18.5C20 19.3284 19.3284 20 18.5 20C17.6715 20 17 19.3284 17 18.5C17 17.6715 17.6715 17 18.5 17Z" fill="white"/>
</svg>
