<svg width="37" height="37" viewBox="0 0 37 37" fill="none" xmlns="http://www.w3.org/2000/svg">
<path d="M0 18.5C0 8.28273 8.28273 0 18.5 0C28.7173 0 37 8.28273 37 18.5C37 28.7173 28.7173 37 18.5 37C8.28273 37 0 28.7173 0 18.5ZM17.9459 15.037L17.9847 15.6772L17.3377 15.5988C14.9826 15.2983 12.9251 14.2793 11.1781 12.5679L10.324 11.7187L10.1041 12.3458C9.63821 13.7437 9.93584 15.2199 10.9064 16.2128C11.424 16.7615 11.3075 16.8399 10.4146 16.5133C10.1041 16.4088 9.83232 16.3304 9.80644 16.3696C9.71585 16.461 10.0264 17.6499 10.2723 18.1202C10.6087 18.7734 11.2946 19.4135 12.0451 19.7924L12.6792 20.0928L11.9287 20.1059C11.204 20.1059 11.1781 20.119 11.2558 20.3933C11.5146 21.2425 12.5369 22.1439 13.6756 22.5358L14.4779 22.8102L13.7791 23.2282C12.7439 23.8292 11.5275 24.1688 10.3111 24.195C9.72879 24.208 9.25 24.2603 9.25 24.2995C9.25 24.4301 10.8287 25.1617 11.7475 25.4491C14.5038 26.2983 17.7777 25.9325 20.2364 24.4824C21.9833 23.4503 23.7303 21.3993 24.5455 19.4135C24.9855 18.3553 25.4255 16.4218 25.4255 15.4943C25.4255 14.8933 25.4643 14.8149 26.1889 14.0964C26.616 13.6784 27.0171 13.2211 27.0948 13.0905C27.2242 12.8423 27.2112 12.8423 26.5513 13.0643C25.4513 13.4563 25.2961 13.404 25.8396 12.8161C26.2407 12.3981 26.7195 11.6404 26.7195 11.4183C26.7195 11.3791 26.5254 11.4444 26.3054 11.562C26.0725 11.6926 25.5549 11.8886 25.1667 12.0062L24.4679 12.2282L23.8338 11.7971C23.4844 11.562 22.9927 11.3007 22.7339 11.2223C22.0739 11.0394 21.0646 11.0655 20.4693 11.2746C18.8518 11.8625 17.8295 13.3779 17.9459 15.037Z" fill="white"/>
</svg>
